<svg xmlns="http://www.w3.org/2000/svg" width="96" height="96" viewBox="0 0 48 48">
  <defs>
    <linearGradient id="g_game" x1="0" y1="0" x2="0" y2="1">
      <stop offset="0" stop-color="#b6baff"></stop><stop offset="0.5" stop-color="#7178f0"></stop><stop offset="1" stop-color="#4a52e0"></stop>
    </linearGradient>
    <filter id="s_game" x="-30%" y="-30%" width="160%" height="160%">
      <feDropShadow dx="0" dy="1.5" stdDeviation="1.2" flood-color="#2a2f9e" flood-opacity="0.34"></feDropShadow>
    </filter>
  </defs>
  <g filter="url(#s_game)"><g><path d="M16 16 h16 a10 10 0 0 1 10 10 a6 6 0 0 1-11 3 h-14 a6 6 0 0 1-11-3 a10 10 0 0 1 10-10 Z" fill="url(#g_game)"></path><g stroke="rgba(255,255,255,0.95)" stroke-width="2.6" stroke-linecap="round"><line x1="13" y1="26" x2="19" y2="26"></line><line x1="16" y1="23" x2="16" y2="29"></line></g><g fill="rgba(255,255,255,0.95)"><circle cx="31" cy="24" r="2.2"></circle><circle cx="35" cy="28" r="2.2"></circle></g></g></g>
  <ellipse cx="20" cy="14" rx="11" ry="6" fill="#fff" opacity="0.18"></ellipse>
</svg>